<svg width="23" height="23" viewBox="0 0 23 23" fill="none" xmlns="http://www.w3.org/2000/svg">
<path d="M22.0833 20.4167V9.08333C22.0833 8.87634 22.0351 8.67219 21.9426 8.48705C21.85 8.30191 21.7156 8.14086 21.55 8.01667L12.2167 1.01667C11.9859 0.84357 11.7052 0.75 11.4167 0.75C11.1282 0.75 10.8475 0.84357 10.6167 1.01667L1.28333 8.01667C1.11774 8.14086 0.983334 8.30191 0.890764 8.48705C0.798193 8.67219 0.75 8.87634 0.75 9.08333V20.4167C0.75 20.7703 0.890476 21.1094 1.14052 21.3595C1.39057 21.6095 1.72971 21.75 2.08333 21.75H7.41667C7.77029 21.75 8.10943 21.6095 8.35948 21.3595C8.60952 21.1094 8.75 20.7703 8.75 20.4167V16.4167C8.75 16.063 8.89048 15.7239 9.14052 15.4739C9.39057 15.2238 9.72971 15.0833 10.0833 15.0833H12.75C13.1036 15.0833 13.4428 15.2238 13.6928 15.4739C13.9429 15.7239 14.0833 16.063 14.0833 16.4167V20.4167C14.0833 20.7703 14.2238 21.1094 14.4739 21.3595C14.7239 21.6095 15.063 21.75 15.4167 21.75H20.75C21.1036 21.75 21.4428 21.6095 21.6928 21.3595C21.9429 21.1094 22.0833 20.7703 22.0833 20.4167Z" stroke="#D0D0D0" stroke-width="1.5" stroke-linecap="round" stroke-linejoin="round"/>
</svg>
