<svg width="25" height="23" viewBox="0 0 25 23" fill="none" xmlns="http://www.w3.org/2000/svg">
<path d="M6.15866 18.6746C7.87652 20.3925 10.1369 21.4615 12.5547 21.6995C14.9724 21.9375 17.3979 21.3298 19.4177 19.9798C21.4376 18.6299 22.9268 16.6213 23.6317 14.2964C24.3365 11.9715 24.2134 9.47406 23.2832 7.22976C22.353 4.98546 20.6734 3.13315 18.5305 1.98851C16.3876 0.84386 13.9141 0.477705 11.5315 0.952438C9.14893 1.42717 7.00468 2.71342 5.46418 4.59198C3.92368 6.47054 3.08227 8.82516 3.08333 11.2546V13.5833" stroke="white" stroke-width="1.5" stroke-linecap="round" stroke-linejoin="round"/>
<path d="M0.75 11.2502L3.08333 13.5835L5.41667 11.2502M12.4167 6.5835V12.4168H18.25" stroke="white" stroke-width="1.5" stroke-linecap="round" stroke-linejoin="round"/>
</svg>
