<svg width="84" height="84" viewBox="0 0 84 84" fill="none" xmlns="http://www.w3.org/2000/svg">
<circle cx="42" cy="42" r="40.5" stroke="#BC91DB" stroke-width="3"/>
<path d="M55.4867 33.6038C59.4491 33.4507 62.1038 34.1403 62.5995 35.9974C63.0952 37.8546 61.1374 39.7754 57.6258 41.6174C61.134 43.4661 63.0883 45.3907 62.5891 47.2469C62.0898 49.1032 59.4338 49.7878 55.4715 49.6271C57.5854 52.9822 58.3156 55.6261 56.9551 56.984C55.5945 58.342 52.952 57.6068 49.6008 55.4864C49.7539 59.4491 49.0643 62.1039 47.2071 62.5996C45.35 63.0954 43.4291 61.1375 41.5871 57.6259C39.7385 61.134 37.814 63.0882 35.9578 62.5889C34.1015 62.0897 33.4169 59.4336 33.5776 55.4714C30.2225 57.5853 27.5786 58.3154 26.2207 56.9549C24.8628 55.5944 25.5979 52.952 27.7181 49.6009C23.7555 49.7541 21.1007 49.0645 20.6049 47.2073C20.1092 45.35 22.0671 43.4291 25.5789 41.5871C22.0708 39.7384 20.1165 37.8139 20.6158 35.9576C21.115 34.1014 23.7711 33.4168 27.7333 33.5774C25.6194 30.2224 24.8893 27.5785 26.2498 26.2206C27.6102 24.8627 30.2526 25.5978 33.6036 27.7179C33.4505 23.7555 34.1401 21.1008 35.9973 20.605C37.8545 20.1093 39.7754 22.0673 41.6175 25.5791C43.4662 22.0707 45.3908 20.1164 47.2471 20.6156C49.1033 21.1149 49.7879 23.7709 49.6273 27.7332C52.9824 25.6193 55.6262 24.8892 56.9842 26.2496C58.3421 27.6101 57.6069 30.2527 55.4867 33.6038Z" fill="#BC91DB"/>
</svg>
