<svg width="22" height="22" viewBox="0 0 22 22" fill="none" xmlns="http://www.w3.org/2000/svg">
<path d="M10.75 14.75V17.75" stroke="#BC91DB" stroke-width="1.5" stroke-linecap="round"/>
<path d="M14.25 20.75H7.25L7.59 19.054C7.63529 18.8274 7.75768 18.6235 7.93634 18.4769C8.115 18.3303 8.33891 18.2501 8.57 18.25H12.93C13.1611 18.2501 13.385 18.3303 13.5637 18.4769C13.7423 18.6235 13.8647 18.8274 13.91 19.054L14.25 20.75Z" stroke="#BC91DB" stroke-width="1.5" stroke-linecap="round" stroke-linejoin="round"/>
<path d="M17.75 3.75L18.699 4.066C19.689 4.396 20.184 4.561 20.467 4.954C20.75 5.347 20.75 5.87 20.75 6.912V6.985C20.75 7.845 20.75 8.276 20.543 8.628C20.336 8.98 19.959 9.189 19.207 9.608L16.25 11.25M3.75 3.75L2.801 4.066C1.811 4.396 1.316 4.561 1.033 4.954C0.75 5.347 0.75 5.87 0.75 6.912V6.985C0.75 7.845 0.75 8.276 0.957 8.628C1.164 8.98 1.541 9.189 2.293 9.608L5.25 11.25M9.896 4.773C10.276 4.09 10.466 3.75 10.75 3.75C11.034 3.75 11.224 4.09 11.604 4.773L11.702 4.949C11.81 5.143 11.864 5.239 11.948 5.303C12.033 5.367 12.138 5.391 12.348 5.438L12.538 5.482C13.276 5.649 13.645 5.732 13.733 6.014C13.821 6.296 13.569 6.591 13.066 7.179L12.936 7.331C12.793 7.498 12.721 7.581 12.689 7.685C12.657 7.789 12.668 7.9 12.689 8.123L12.709 8.326C12.785 9.111 12.823 9.504 12.594 9.678C12.364 9.852 12.018 9.693 11.327 9.375L11.149 9.293C10.952 9.203 10.854 9.158 10.75 9.158C10.646 9.158 10.548 9.203 10.351 9.293L10.173 9.375C9.482 9.694 9.136 9.852 8.906 9.678C8.676 9.504 8.715 9.111 8.791 8.326L8.811 8.123C8.832 7.9 8.843 7.789 8.811 7.685C8.779 7.581 8.707 7.498 8.564 7.331L8.434 7.179C7.931 6.591 7.679 6.297 7.767 6.014C7.855 5.732 8.224 5.649 8.962 5.482L9.152 5.438C9.362 5.391 9.467 5.368 9.552 5.303C9.636 5.239 9.69 5.143 9.798 4.949L9.896 4.773Z" stroke="#BC91DB" stroke-width="1.5"/>
<path d="M16.75 20.7502H4.75M15.75 1.20623C16.491 1.34723 16.931 1.50323 17.31 1.97123C17.787 2.55723 17.762 3.19023 17.711 4.45623C17.531 9.00923 16.511 14.7502 10.751 14.7502C4.991 14.7502 3.97 9.01023 3.788 4.45623C3.738 3.19023 3.713 2.55623 4.188 1.97123C4.664 1.38523 5.233 1.28923 6.372 1.09723C7.81916 0.860171 9.28356 0.744103 10.75 0.75023C11.4687 0.751564 12.1353 0.774231 12.75 0.818231" stroke="#BC91DB" stroke-width="1.5" stroke-linecap="round"/>
</svg>
