<svg width="18" height="20" viewBox="0 0 18 20" fill="none" xmlns="http://www.w3.org/2000/svg">
<path d="M15.0019 13.4902C14.5978 13.4901 14.1979 13.5718 13.8264 13.7306C13.4548 13.8893 13.1192 14.1217 12.84 14.4137L5.9025 10.5104C6.03688 10.0058 6.03688 9.47473 5.9025 8.97009L12.84 5.0668C13.3452 5.59056 14.024 5.91215 14.7493 5.97134C15.4745 6.03053 16.1965 5.82325 16.7799 5.38834C17.3633 4.95342 17.7682 4.32071 17.9186 3.60874C18.069 2.89677 17.9546 2.15438 17.5969 1.52067C17.2393 0.886953 16.6628 0.405388 15.9756 0.166189C15.2883 -0.0730099 14.5374 -0.0534295 13.8636 0.221262C13.1897 0.495953 12.6392 1.00691 12.315 1.6584C11.9909 2.3099 11.9154 3.05723 12.1027 3.7604L5.16515 7.66368C4.75075 7.2316 4.21656 6.93339 3.63128 6.80741C3.046 6.68143 2.43642 6.73345 1.88095 6.95677C1.32548 7.18008 0.84953 7.56449 0.514326 8.06053C0.179123 8.55657 0 9.14156 0 9.74024C0 10.3389 0.179123 10.9239 0.514326 11.42C0.84953 11.916 1.32548 12.3004 1.88095 12.5237C2.43642 12.747 3.046 12.799 3.63128 12.6731C4.21656 12.5471 4.75075 12.2489 5.16515 11.8168L12.1027 15.7201C11.9418 16.3256 11.9746 16.9664 12.1964 17.5524C12.4182 18.1383 12.818 18.6402 13.3395 18.9874C13.8611 19.3346 14.4782 19.5099 15.1044 19.4885C15.7306 19.4671 16.3344 19.2502 16.8311 18.8682C17.3277 18.4863 17.6923 17.9584 17.8737 17.3586C18.055 16.7589 18.0441 16.1174 17.8423 15.5242C17.6406 14.931 17.2581 14.4159 16.7487 14.0511C16.2393 13.6863 15.6284 13.4902 15.0019 13.4902Z" fill="#BC91DB"/>
</svg>
