<svg width="22" height="20" viewBox="0 0 22 20" fill="none" xmlns="http://www.w3.org/2000/svg">
<path d="M5.386 16.1139C6.85845 17.5864 8.79594 18.5027 10.8683 18.7067C12.9406 18.9107 15.0196 18.3898 16.7509 17.2327C18.4822 16.0756 19.7587 14.354 20.3629 12.3612C20.967 10.3684 20.8615 8.22776 20.0642 6.30408C19.2669 4.38039 17.8272 2.7927 15.9904 1.81158C14.1537 0.830452 12.0335 0.516604 9.99131 0.923518C7.94909 1.33043 6.11116 2.43293 4.79073 4.04312C3.47031 5.65332 2.74909 7.67157 2.75 9.75394V11.7499" stroke="#BC91DB" stroke-width="1.5" stroke-linecap="round" stroke-linejoin="round"/>
<path d="M0.75 9.75L2.75 11.75L4.75 9.75M10.75 5.75V10.75H15.75" stroke="#BC91DB" stroke-width="1.5" stroke-linecap="round" stroke-linejoin="round"/>
</svg>
